# xmcd
#
# Track frame offsets: 
#        150
#        1615
#        19587
#        42452
#        67192
#        101540
#        122205
#        142637
#        168830
#
# Disc length: 2649 seconds
#
# Revision: 2
# Processed by: cddbd v1.4PL0 Copyright (c) Steve Scherf et al.
# Submitted via: ExactAudioCopy v0.90a11
#
DISCID=680a5709
DTITLE=John Mayall - Lots of People
DYEAR=1977
DGENRE=Blues
TTITLE0=Spoken Introduction By Red Holloway
TTITLE1=Changes In the Wind
TTITLE2=Burning Down
TTITLE3=Play the Harp
TTITLE4=A Helping Hand
TTITLE5=I Got To Get Down With You
TTITLE6=He's A Travelling Man
TTITLE7=Separate Ways
TTITLE8=Room To Move
EXTD=
EXTT0=
EXTT1=
EXTT2=
EXTT3=
EXTT4=
EXTT5=
EXTT6=
EXTT7=
EXTT8=
PLAYORDER=
